<svg width="26" height="30" viewBox="0 0 26 30" fill="none" xmlns="http://www.w3.org/2000/svg">
<g id="circum:mobile-1">
<path id="Vector" d="M11.0105 23.6662H15.0942C15.2296 23.6662 15.3595 23.6004 15.4552 23.4832C15.5509 23.366 15.6047 23.207 15.6047 23.0412C15.6047 22.8755 15.5509 22.7165 15.4552 22.5993C15.3595 22.4821 15.2296 22.4162 15.0942 22.4162H11.0105C10.8751 22.4162 10.7452 22.4821 10.6495 22.5993C10.5538 22.7165 10.5 22.8755 10.5 23.0412C10.5 23.207 10.5538 23.366 10.6495 23.4832C10.7452 23.6004 10.8751 23.6662 11.0105 23.6662Z" fill="#4B4B4B"/>
<path id="Vector_2" d="M17.8782 27.4213H8.22625C7.58572 27.3745 6.98619 27.0199 6.5581 26.4347C6.13001 25.8494 5.908 25.0809 5.94036 24.2963V5.70375C5.908 4.91912 6.13001 4.15058 6.5581 3.56535C6.98619 2.98012 7.58572 2.62553 8.22625 2.57875H17.8782C18.5188 2.62553 19.1183 2.98012 19.5464 3.56535C19.9745 4.15058 20.1965 4.91912 20.1641 5.70375V24.2963C20.1965 25.0809 19.9745 25.8494 19.5464 26.4347C19.1183 27.0199 18.5188 27.3745 17.8782 27.4213ZM8.22625 3.82875C7.85696 3.87651 7.51767 4.09959 7.28119 4.45013C7.0447 4.80066 6.92986 5.25073 6.9613 5.70375V24.2963C6.92986 24.7493 7.0447 25.1993 7.28119 25.5499C7.51767 25.9004 7.85696 26.1235 8.22625 26.1713H17.8782C18.2475 26.1235 18.5868 25.9004 18.8233 25.5499C19.0598 25.1993 19.1746 24.7493 19.1432 24.2963V5.70375C19.1746 5.25073 19.0598 4.80066 18.8233 4.45013C18.5868 4.09959 18.2475 3.87651 17.8782 3.82875H8.22625Z" fill="#4B4B4B"/>
</g>
</svg>
