<svg xmlns="http://www.w3.org/2000/svg" version="1.1" xmlns:xlink="http://www.w3.org/1999/xlink" xmlns:svgjs="http://svgjs.dev/svgjs" width="128" height="128" viewBox="0 0 128 128"><g transform="matrix(0.8046875,0,0,0.8046875,12.466923067257447,5.555338750867769)"><svg viewBox="0 0 83 95" data-background-color="#ffffff" preserveAspectRatio="xMidYMid meet" height="146" width="128" xmlns="http://www.w3.org/2000/svg" xmlns:xlink="http://www.w3.org/1999/xlink"><g id="tight-bounds" transform="matrix(1,0,0,1,0.026915983489061546,-0.2405851317031562)"><svg viewBox="0 0 82.94597786192888 95.48099999999998" height="95.48099999999998" width="82.94597786192888"><g><svg viewBox="0 0 82.94597786192888 95.48099999999998" height="95.48099999999998" width="82.94597786192888"><g><svg viewBox="0 0 82.94597786192888 95.48099999999998" height="95.48099999999998" width="82.94597786192888"><g id="textblocktransform"><svg viewBox="0 0 82.94597786192888 95.48099999999998" height="95.48099999999998" width="82.94597786192888" id="textblock"><g><svg viewBox="0 0 82.94597786192888 95.48099999999998" height="95.48099999999998" width="82.94597786192888"><g><svg viewBox="0 0 82.94597786192888 95.48099999999998" height="95.48099999999998" width="82.94597786192888"><g><svg xmlns="http://www.w3.org/2000/svg" xmlns:xlink="http://www.w3.org/1999/xlink" version="1.0" x="0" y="0" viewBox="12.8562469 5.2999234 78.2383269 90.06191600000001" enable-background="new 0 0 100 100" xml:space="preserve" height="95.48099999999998" width="82.94597786192888" class="icon-icon-0" data-fill-palette-color="accent" id="icon-0"><path d="M59.227 86.912H51.815V46.774h0.02c-0.388-0.346-0.769-0.703-1.14-1.074-2.317-2.317-4.155-4.985-5.467-7.883H12.857v8.746h5.176v48.799h49.222V53.429c-2.791-0.241-5.492-0.911-8.028-1.978V86.912zM33.472 86.912h-7.412V46.774h7.412V86.912zM46.349 86.912H38.938V46.774h7.411V86.912z" fill="#16c99e" data-fill-palette-color="accent"></path><path d="M42.863 26.792c0-3.501 0.67-6.899 1.947-10.049H34.615v7.412H12.856v9.207h30.816C43.138 31.24 42.863 29.037 42.863 26.792z" fill="#16c99e" data-fill-palette-color="accent"></path><path d="M69.602 5.3c-8.239 0-15.394 4.637-19.001 11.443-1.589 2.999-2.491 6.419-2.491 10.049 0 2.292 0.36 4.499 1.024 6.57 0.504 1.571 1.183 3.064 2.017 4.455 3.374 5.635 9.256 9.596 16.104 10.339 0.771 0.084 1.554 0.128 2.347 0.128 11.87 0 21.492-9.622 21.493-21.492S81.472 5.3 69.602 5.3zM70.67 40.448v0.112 1.086c0 0.86-0.286 1.758-1.295 1.758-1.009 0-1.294-0.898-1.294-1.758v-1.161c-2.592-0.074-8.028-0.899-8.028-4.116 0-1.457 0.908-2.656 2.443-2.656 1.609 0 4.289 1.199 5.585 1.422v-6.247c-2.592-1.049-8.043-2.02-8.043-7.371 0-4.789 4.156-7.932 8.043-8.418v-0.076-1.084c0-1.011 0.285-1.758 1.294-1.758 1.01 0 1.295 0.747 1.295 1.758v1.16c2.592 0.074 6.393 0.973 6.394 3.666 0 1.458-0.895 2.768-2.431 2.768-1.307 0-2.666-0.821-3.963-1.009v4.976c3.887 1.047 8.496 2.358 8.496 8.382C79.166 36.857 74.558 40.073 70.67 40.448z" fill="#16c99e" data-fill-palette-color="accent"></path><path d="M70.67 29.522v5.462c1.297-0.372 2.433-1.57 2.433-3.029C73.103 30.72 71.967 30.01 70.67 29.522z" fill="#16c99e" data-fill-palette-color="accent"></path><path d="M66.098 20.843c0 0.971 0.687 1.535 1.983 1.983v-4.265C66.785 18.86 66.098 19.647 66.098 20.843z" fill="#16c99e" data-fill-palette-color="accent"></path></svg></g></svg></g></svg></g></svg></g></svg></g></svg></g><defs></defs></svg><rect width="82.94597786192888" height="95.48099999999998" fill="none" stroke="none" visibility="hidden"></rect></g></svg></g></svg>