<svg xmlns="http://www.w3.org/2000/svg" version="1.1" xmlns:xlink="http://www.w3.org/1999/xlink" xmlns:svgjs="http://svgjs.dev/svgjs" width="2000" height="1500" viewBox="0 0 2000 1500"><rect width="2000" height="1500" fill="#000000"></rect><g transform="matrix(0.75,0,0,0.75,249.09112033306576,672.163807016312)"><svg viewBox="0 0 396 41" data-background-color="#ffffff" preserveAspectRatio="xMidYMid meet" height="207" width="2000" xmlns="http://www.w3.org/2000/svg" xmlns:xlink="http://www.w3.org/1999/xlink"><g id="tight-bounds" transform="matrix(1,0,0,1,0.24005576792933425,0.055773992471529255)"><svg viewBox="0 0 395.52 40.88845201505693" height="40.88845201505693" width="395.52"><g><svg viewBox="0 0 463.79230144893927 47.94637252919643" height="40.88845201505693" width="395.52"><g><rect width="4.302341647103865" height="47.94637252919643" x="52.7072853329772" y="0" fill="#ffffff" opacity="1" stroke-width="0" stroke="transparent" fill-opacity="1" class="rect-qz-0" data-fill-palette-color="primary" rx="1%" id="qz-0" data-palette-color="#1d0347"></rect></g><g transform="matrix(1,0,0,1,68.27230144893934,0.11926958340595917)"><svg viewBox="0 0 395.5199999999999 47.70783336238451" height="47.70783336238451" width="395.5199999999999"><g id="textblocktransform"><svg viewBox="0 0 395.5199999999999 47.70783336238451" height="47.70783336238451" width="395.5199999999999" id="textblock"><g><svg viewBox="0 0 395.5199999999999 47.70783336238451" height="47.70783336238451" width="395.5199999999999"><g transform="matrix(1,0,0,1,0,0)"><svg width="395.5199999999999" viewBox="3.45 -34.25 286.83 34.6" height="47.70783336238451" data-palette-color="#1d0347"><path d="M14.95-20.3L23.55-20.3Q26.2-20.3 27.28-19.45 28.35-18.6 28.35-16.55L28.35-16.55Q28.35-14.85 27.08-14.13 25.8-13.4 23.1-13.4L23.1-13.4 15-13.4 15-8.1 25.85-8.05Q28.65-8.05 29.88-7.23 31.1-6.4 31.1-4.3L31.1-4.3Q31.1-1.9 29.68-0.95 28.25 0 25.35 0L25.35 0 9.15 0Q6.2 0 4.83-1.58 3.45-3.15 3.45-7.15L3.45-7.15 3.45-28.25Q3.45-34.25 9.15-34.25L9.15-34.25 25.35-34.25Q28.25-34.25 29.68-33.35 31.1-32.45 31.1-30.1L31.1-30.1Q31.1-27.9 29.88-27.03 28.65-26.15 25.85-26.15L25.85-26.15 14.95-26.15 14.95-20.3ZM63.1-7.5L63.1-7.5Q64.4-7.5 64.72-8.13 65.05-8.75 65.05-10.45L65.05-10.45 65.1-19.4Q65.1-21.7 66.4-22.78 67.7-23.85 70.8-23.85L70.8-23.85Q72.15-23.85 73-23.55 73.85-23.25 74.47-22.58 75.1-21.9 75.42-20.53 75.75-19.15 75.9-17.23 76.05-15.3 76.05-12.3L76.05-12.3Q76.05-9.65 75.22-7.48 74.4-5.3 73.12-3.95 71.85-2.6 70.15-1.68 68.45-0.75 66.75-0.38 65.05 0 63.35 0L63.35 0Q59.3 0 55.9-2.55L55.9-2.55Q52.55 0 48.5 0L48.5 0Q46.8 0 45.12-0.38 43.45-0.75 41.72-1.68 40-2.6 38.7-3.95 37.4-5.3 36.57-7.48 35.75-9.65 35.75-12.3L35.75-12.3Q35.75-17.25 36.2-19.63 36.65-22 37.7-22.93 38.75-23.85 41-23.85L41-23.85Q43.1-23.85 44.35-23.35 45.6-22.85 46.12-21.9 46.65-20.95 46.65-19.4L46.65-19.4 46.7-10.5Q46.7-9.75 46.72-9.43 46.75-9.1 46.85-8.63 46.95-8.15 47.15-7.98 47.35-7.8 47.7-7.65 48.05-7.5 48.6-7.5L48.6-7.5Q50.6-7.5 50.95-8.65L50.95-8.65Q50.5-11.65 50.5-15.1L50.5-15.1Q50.5-18 50.7-19.63 50.9-21.25 51.57-22.25 52.25-23.25 53.25-23.55 54.25-23.85 56.1-23.85L56.1-23.85Q57.75-23.85 58.7-23.55 59.65-23.25 60.25-22.25 60.85-21.25 61.05-19.63 61.25-18 61.25-15.1L61.25-15.1Q61.25-11.6 60.85-8.6L60.85-8.6Q61.2-7.5 63.1-7.5ZM89.34 0.3L89.34 0.3Q85.39 0.3 82.8-2.93 80.19-6.15 80.19-11.75L80.19-11.75Q80.19-17.45 82.77-20.83 85.34-24.2 89.34-24.2L89.34-24.2Q93.39-24.2 96.84-21.35L96.84-21.35Q98.19-23.85 101.19-23.85L101.19-23.85Q103.89-23.85 105.39-22.68 106.89-21.5 106.89-18.35L106.89-18.35 106.89-5.35Q106.89-2.35 105.64-1.18 104.39 0 101.25 0L101.25 0Q97.94 0 96.89-1.85L96.89-1.85Q93.69 0.3 89.34 0.3ZM96.14-7.2L96.14-16.55Q95.3-18 93.94-18L93.94-18Q92.64-18 91.84-16.1 91.05-14.2 91.05-11.75L91.05-11.75Q91.05-9.45 91.8-7.65 92.55-5.85 93.89-5.85L93.89-5.85Q95.3-5.85 96.14-7.2L96.14-7.2ZM123.34-24.2L123.34-24.2Q127.99-24.2 131.09-22.3 134.19-20.4 134.19-18.15L134.19-18.15Q134.19-17.5 133.64-16.95 133.09-16.4 132.24-16.4L132.24-16.4Q131.49-16.4 130.59-16.93 129.69-17.45 128.89-18.05 128.09-18.65 126.79-19.15 125.49-19.65 124.04-19.65L124.04-19.65Q122.09-19.65 122.09-18.45L122.09-18.45Q122.09-17.6 123.09-17.1 124.09-16.6 126.02-16.05 127.94-15.5 128.94-15L128.94-15Q132.69-13.55 134.09-11.88 135.49-10.2 135.49-7.45L135.49-7.45Q135.49-6.1 134.74-4.78 133.99-3.45 132.49-2.27 130.99-1.1 128.42-0.38 125.84 0.35 122.54 0.35L122.54 0.35Q116.09 0.35 112.89-2.6L112.89-2.6Q111.34-4.05 111.34-5.6L111.34-5.6Q111.34-6.55 111.97-7.1 112.59-7.65 113.74-7.65L113.74-7.65Q114.89-7.65 117.24-6.53 119.59-5.4 121.59-5.4L121.59-5.4Q124.34-5.4 124.34-6.75L124.34-6.75Q124.34-7.45 122.89-7.88 121.44-8.3 119.09-8.9 116.74-9.5 115.34-10.4L115.34-10.4Q113.14-11.35 112.27-12.78 111.39-14.2 111.39-16.25L111.39-16.25Q111.39-19.75 114.72-21.98 118.04-24.2 123.34-24.2ZM141.19-10.7L141.19-10.7 141.19-16.6Q139.94-16.65 139.19-17.03 138.44-17.4 138.12-18 137.79-18.6 137.79-19.5L137.79-19.5Q137.79-22.35 141.24-22.6L141.24-22.6 141.24-27.25Q141.24-29.15 143.99-30.68 146.74-32.2 149.44-32.2L149.44-32.2Q151.09-32.2 151.59-31.25 152.09-30.3 152.09-28.4L152.09-28.4 152.14-22.65 153.49-22.65Q156.24-22.65 157.27-21.93 158.29-21.2 158.29-19.3L158.29-19.3Q158.29-18.5 157.99-17.95 157.69-17.4 157.02-17.1 156.34-16.8 155.39-16.68 154.44-16.55 153.04-16.55L153.04-16.55 152.14-16.55 152.14-11.05Q152.14-10.25 152.22-9.73 152.29-9.2 152.44-8.9 152.59-8.6 152.87-8.5 153.14-8.4 153.54-8.4L153.54-8.4Q154.14-8.4 154.54-8.83 154.94-9.25 155.17-9.78 155.39-10.3 155.77-10.73 156.14-11.15 156.64-11.15L156.64-11.15Q157.79-11.15 158.42-10.6 159.04-10.05 159.04-9.25L159.04-9.25Q159.04-7.9 158.52-6.35 157.99-4.8 156.99-3.35 155.99-1.9 154.22-0.95 152.44 0 150.24 0L150.24 0Q145.29 0 143.24-2.5 141.19-5 141.19-10.7ZM176.74 0.3L176.74 0.3Q170.64 0.3 166.66-2.85 162.69-6 162.69-11.45L162.69-11.45Q162.69-17.35 166.61-20.78 170.54-24.2 176.74-24.2L176.74-24.2Q182.59-24.2 185.31-22.13 188.04-20.05 188.04-16.45L188.04-16.45Q188.04-15.75 187.86-15.1 187.69-14.45 187.31-13.83 186.94-13.2 186.31-12.68 185.69-12.15 184.89-11.73 184.09-11.3 182.99-11.08 181.89-10.85 180.64-10.85L180.64-10.85 173.59-10.8Q174.09-9.2 175.39-8.28 176.69-7.35 178.69-7.35L178.69-7.35Q180.84-7.35 183.09-7.9L183.09-7.9Q184.04-8.15 185.16-8.7 186.29-9.25 186.79-9.25L186.79-9.25Q187.64-9.25 188.11-8.75 188.59-8.25 188.59-7.5L188.59-7.5Q188.59-6.6 187.79-5.33 186.99-4.05 185.56-2.78 184.14-1.5 181.79-0.6 179.44 0.3 176.74 0.3ZM173.34-14L173.34-14Q176.79-14.05 177.09-14.05L177.09-14.05Q177.84-14.05 178.19-14.95L178.19-14.95Q178.44-15.6 178.44-16.75L178.44-16.75Q178.44-19.9 176.54-19.9L176.54-19.9Q175.84-19.9 175.16-19.15 174.49-18.4 173.99-17.03 173.49-15.65 173.34-14ZM226.59-28.7L226.59-7.5Q226.59-3.45 225.14-1.73 223.69 0 220.74 0L220.74 0Q217.84 0 216.49-1.58 215.14-3.15 215.14-7.15L215.14-7.15 215.09-12.8 204.89-12.8 204.89-7.5Q204.89-3.4 203.49-1.7 202.09 0 199.04 0L199.04 0Q196.14 0 194.79-1.58 193.44-3.15 193.44-7.15L193.44-7.15 193.29-28.25Q193.29-31.35 194.86-32.8 196.44-34.25 199.04-34.25L199.04-34.25Q202.04-34.25 203.46-33.15 204.89-32.05 204.89-28.7L204.89-28.7 204.89-20.3 215.04-20.3 215.04-28.25Q215.04-30.35 215.81-31.73 216.59-33.1 217.81-33.68 219.04-34.25 220.74-34.25L220.74-34.25Q223.64-34.25 225.11-33.15 226.59-32.05 226.59-28.7L226.59-28.7ZM242.63-19.7L242.68-10.55Q242.68-7.7 244.88-7.7L244.88-7.7Q245.63-7.7 246.21-8.18 246.78-8.65 247.08-9.5 247.38-10.35 247.38-11.45L247.38-11.45 247.38-18.15Q247.38-19.85 247.98-21.13 248.58-22.4 249.73-23.1 250.88-23.8 252.43-23.8L252.43-23.8Q255.13-23.8 256.63-22.63 258.13-21.45 258.13-18.3L258.13-18.3 258.13-5.3Q258.13-2.25 256.88-1.1 255.63 0.05 252.48 0.05L252.48 0.05Q251.13 0.05 250.18-0.23 249.23-0.5 248.66-1.05 248.08-1.6 247.78-2.5L247.78-2.5Q245.73-1.15 243.46-0.6 241.18-0.05 238.38-0.05L238.38-0.05Q234.83-0.05 233.28-2.83 231.73-5.6 231.73-11.95L231.73-11.95Q231.73-15.1 231.88-17.07 232.03-19.05 232.36-20.48 232.68-21.9 233.36-22.6 234.03-23.3 234.96-23.6 235.88-23.9 237.38-23.9L237.38-23.9Q240.18-23.9 241.41-22.85 242.63-21.8 242.63-19.7L242.63-19.7ZM274.03-28.65L274.03-21.8Q277.33-24.25 281.18-24.25L281.18-24.25Q285.08-24.25 287.68-20.95 290.28-17.65 290.28-12.6L290.28-12.6Q290.28-6.5 286.33-3.08 282.38 0.35 276.08 0.35L276.08 0.35Q272.23 0.35 269.36-0.75 266.48-1.85 264.86-4.05 263.23-6.25 263.18-9.35L263.18-9.35 263.08-28.2Q263.08-31.3 264.58-32.75 266.08-34.2 268.58-34.2L268.58-34.2Q271.38-34.2 272.7-32.88 274.03-31.55 274.03-28.65L274.03-28.65ZM274.08-7.65L274.08-7.65Q274.98-5.95 276.58-5.95L276.58-5.95Q277.93-5.95 278.68-7.65 279.43-9.35 279.43-11.55L279.43-11.55Q279.43-12.75 279.23-13.9 279.03-15.05 278.68-15.98 278.33-16.9 277.78-17.48 277.23-18.05 276.53-18.05L276.53-18.05Q274.98-18.05 274.08-16.2L274.08-16.2Q274.08-15.55 274.08-12.48 274.08-9.4 274.08-7.65Z" opacity="1" transform="matrix(1,0,0,1,0,0)" fill="#ffffff" class="wordmark-text-0" data-fill-palette-color="primary" id="text-0"></path></svg></g></svg></g></svg></g></svg></g><g transform="matrix(1,0,0,1,0,0.11926958340596272)"><svg viewBox="0 0 41.444610864118914 47.707833362384505" height="47.707833362384505" width="41.444610864118914"><g><svg xmlns="http://www.w3.org/2000/svg" xmlns:xlink="http://www.w3.org/1999/xlink" version="1.0" x="0" y="0" viewBox="12.8562469 5.2999234 78.2383269 90.06191600000001" enable-background="new 0 0 100 100" xml:space="preserve" height="47.707833362384505" width="41.444610864118914" class="icon-icon-0" data-fill-palette-color="accent" id="icon-0"><path d="M59.227 86.912H51.815V46.774h0.02c-0.388-0.346-0.769-0.703-1.14-1.074-2.317-2.317-4.155-4.985-5.467-7.883H12.857v8.746h5.176v48.799h49.222V53.429c-2.791-0.241-5.492-0.911-8.028-1.978V86.912zM33.472 86.912h-7.412V46.774h7.412V86.912zM46.349 86.912H38.938V46.774h7.411V86.912z" fill="#ffffff" data-fill-palette-color="accent"></path><path d="M42.863 26.792c0-3.501 0.67-6.899 1.947-10.049H34.615v7.412H12.856v9.207h30.816C43.138 31.24 42.863 29.037 42.863 26.792z" fill="#ffffff" data-fill-palette-color="accent"></path><path d="M69.602 5.3c-8.239 0-15.394 4.637-19.001 11.443-1.589 2.999-2.491 6.419-2.491 10.049 0 2.292 0.36 4.499 1.024 6.57 0.504 1.571 1.183 3.064 2.017 4.455 3.374 5.635 9.256 9.596 16.104 10.339 0.771 0.084 1.554 0.128 2.347 0.128 11.87 0 21.492-9.622 21.493-21.492S81.472 5.3 69.602 5.3zM70.67 40.448v0.112 1.086c0 0.86-0.286 1.758-1.295 1.758-1.009 0-1.294-0.898-1.294-1.758v-1.161c-2.592-0.074-8.028-0.899-8.028-4.116 0-1.457 0.908-2.656 2.443-2.656 1.609 0 4.289 1.199 5.585 1.422v-6.247c-2.592-1.049-8.043-2.02-8.043-7.371 0-4.789 4.156-7.932 8.043-8.418v-0.076-1.084c0-1.011 0.285-1.758 1.294-1.758 1.01 0 1.295 0.747 1.295 1.758v1.16c2.592 0.074 6.393 0.973 6.394 3.666 0 1.458-0.895 2.768-2.431 2.768-1.307 0-2.666-0.821-3.963-1.009v4.976c3.887 1.047 8.496 2.358 8.496 8.382C79.166 36.857 74.558 40.073 70.67 40.448z" fill="#ffffff" data-fill-palette-color="accent"></path><path d="M70.67 29.522v5.462c1.297-0.372 2.433-1.57 2.433-3.029C73.103 30.72 71.967 30.01 70.67 29.522z" fill="#ffffff" data-fill-palette-color="accent"></path><path d="M66.098 20.843c0 0.971 0.687 1.535 1.983 1.983v-4.265C66.785 18.86 66.098 19.647 66.098 20.843z" fill="#ffffff" data-fill-palette-color="accent"></path></svg></g></svg></g></svg></g><defs></defs></svg><rect width="395.52" height="40.88845201505693" fill="none" stroke="none" visibility="hidden"></rect></g></svg></g></svg>