<svg width="300" height="300" viewBox="0 0 300 300" fill="none" xmlns="http://www.w3.org/2000/svg">
<g clip-path="url(#clip0_293_735)">
<path d="M155.5 274C220.393 274 273 221.393 273 156.5C273 91.6065 220.393 39 155.5 39C90.6065 39 38 91.6065 38 156.5C38 221.393 90.6065 274 155.5 274Z" fill="url(#paint0_linear_293_735)"/>
<path d="M84.6654 202L134.039 66.4233L238.157 176.512L117.229 232.024C97.858 240.917 77.3717 222.028 84.6654 202Z" fill="#17CB9E"/>
<ellipse cx="187.263" cy="120.789" rx="17.3767" ry="76.1639" transform="rotate(-43.1847 187.263 120.789)" fill="black"/>
<mask id="mask0_293_735" style="mask-type:alpha" maskUnits="userSpaceOnUse" x="83" y="66" width="156" height="169">
<path d="M84.6654 202L134.039 66.4233L238.157 176.512L117.229 232.024C97.858 240.917 77.3717 222.028 84.6654 202Z" fill="#17CB9E"/>
</mask>
<g mask="url(#mask0_293_735)">
<path fill-rule="evenodd" clip-rule="evenodd" d="M131.724 156.574C110.864 129.256 100.309 96.687 96.9048 74.8213L113.702 72.2061C116.767 91.888 126.439 121.641 145.235 146.257C163.855 170.641 191.096 189.657 229.947 189.657V206.657C184.607 206.657 152.761 184.124 131.724 156.574Z" fill="black"/>
<path fill-rule="evenodd" clip-rule="evenodd" d="M133.963 151.35C113.103 124.031 102.548 91.4628 99.144 69.5971L115.942 66.9819C119.006 86.6639 128.678 116.417 147.474 141.033C166.094 165.417 193.336 184.433 232.186 184.433V201.433C186.846 201.433 155 178.9 133.963 151.35Z" fill="white"/>
<path fill-rule="evenodd" clip-rule="evenodd" d="M107.094 190.907C86.2338 163.589 75.6791 131.02 72.2749 109.154L89.0725 106.539C92.1368 126.221 101.809 155.974 120.605 180.59C139.225 204.974 166.467 223.99 205.317 223.99V240.99C159.977 240.99 128.131 218.457 107.094 190.907Z" fill="white"/>
</g>
<circle cx="180" cy="213" r="30" fill="#FF8F6B"/>
<path fill-rule="evenodd" clip-rule="evenodd" d="M192.139 203.897C193.301 205.079 193.285 206.978 192.103 208.139L177.861 222.139C176.693 223.287 174.822 223.287 173.655 222.139L167.897 216.48C166.715 215.318 166.699 213.419 167.861 212.237C169.022 211.056 170.921 211.04 172.103 212.201L175.758 215.793L187.897 203.861C189.079 202.699 190.978 202.715 192.139 203.897Z" fill="white"/>
<path fill-rule="evenodd" clip-rule="evenodd" d="M239.13 69.952C241.232 64.6124 241.856 59.2826 242.77 53.7033C242.948 52.6136 242.208 51.5887 241.119 51.4091C240.028 51.2295 238.999 51.9704 238.82 53.0599C237.954 58.3505 237.401 63.4215 235.406 68.4936C235.002 69.5195 235.509 70.6808 236.537 71.0803C237.564 71.4862 238.727 70.978 239.13 69.952Z" fill="black"/>
<path fill-rule="evenodd" clip-rule="evenodd" d="M249.268 82.2048C259.638 75.0217 269.797 65.3553 277.349 55.232C278.007 54.3476 277.823 53.0953 276.937 52.4399C276.051 51.7845 274.797 51.9652 274.138 52.8496C266.835 62.6373 257.01 71.9864 246.984 78.9271C246.078 79.5569 245.854 80.8014 246.484 81.7043C247.115 82.6072 248.362 82.8346 249.268 82.2048Z" fill="black"/>
<path fill-rule="evenodd" clip-rule="evenodd" d="M250.376 91.7177C258.641 94.2409 267.671 93.0362 275.806 90.7121C276.867 90.405 277.481 89.2999 277.176 88.2461C276.872 87.1857 275.762 86.5741 274.701 86.8746C267.292 88.9942 259.073 90.2001 251.545 87.9032C250.488 87.5806 249.369 88.1751 249.048 89.2254C248.725 90.2756 249.321 91.3952 250.376 91.7177Z" fill="black"/>
<circle cx="251" cy="106" r="6" fill="black"/>
<circle cx="201" cy="44" r="6" fill="#FFDA45"/>
<path d="M212.543 70.4606C212.025 68.3165 208.975 68.3165 208.458 70.4606L207.787 73.2377C207.602 74.0039 207.004 74.6021 206.238 74.7871L203.461 75.4575C201.317 75.975 201.317 79.0246 203.461 79.5422L206.238 80.2126C207.004 80.3975 207.602 80.9958 207.787 81.7619L208.458 84.5391C208.975 86.6831 212.025 86.6831 212.543 84.5391L213.213 81.7619C213.398 80.9958 213.996 80.3975 214.762 80.2126L217.539 79.5422C219.683 79.0246 219.683 75.975 217.539 75.4575L214.762 74.7871C213.996 74.6021 213.398 74.0039 213.213 73.2377L212.543 70.4606Z" fill="#17CB9E"/>
<path fill-rule="evenodd" clip-rule="evenodd" d="M186.965 24.3104C187.571 25.8523 186.813 27.5938 185.271 28.2002C180.87 29.9308 175.229 35.5056 171.464 42.4444C168.597 47.7261 167.205 53.0602 167.789 57.4255C169.55 54.9117 171.659 52.8496 174.104 51.525C178.488 49.1504 183.489 49.4025 188.332 52.7023C192.563 55.5854 194.288 59.688 193.831 63.7758C193.394 67.6842 191.01 71.2174 187.776 73.437C184.493 75.6899 180.134 76.7288 175.637 75.3519C173.088 74.5713 170.644 73.062 168.407 70.7702C166.273 79.0785 166.35 89.4855 169.877 98.6898C170.47 100.237 169.696 101.972 168.149 102.565C166.602 103.158 164.867 102.384 164.274 100.837C159.622 88.6981 160.227 74.8346 164.02 64.7376C163.912 64.5428 163.805 64.3455 163.699 64.1455C159.709 56.611 162.098 47.1221 166.19 39.5823C170.314 31.9843 176.853 25.0632 183.075 22.6164C184.617 22.01 186.359 22.7685 186.965 24.3104ZM170.757 64.2218C173.023 67.4404 175.373 68.996 177.394 69.6148C179.939 70.3941 182.42 69.8352 184.381 68.4899C186.389 67.1114 187.652 65.0461 187.868 63.1093C188.065 61.3518 187.45 59.3624 184.953 57.6604C181.787 55.5033 179.188 55.595 176.962 56.8007C174.742 58.0029 172.545 60.5188 170.757 64.2218Z" fill="#FF8F6B"/>
<path fill-rule="evenodd" clip-rule="evenodd" d="M283.809 141.641C252.363 129.954 228.298 144.487 220.516 152.707C218.618 154.712 215.453 154.799 213.448 152.901C211.443 151.002 211.356 147.838 213.254 145.832C223.137 135.393 251.267 118.878 287.293 132.268C289.881 133.23 291.2 136.108 290.238 138.697C289.276 141.285 286.397 142.603 283.809 141.641Z" fill="#FFDA45"/>
<path fill-rule="evenodd" clip-rule="evenodd" d="M251.819 152.149C252.52 151.892 253.259 151.55 253.828 151.056C254.504 150.469 254.78 149.712 254.964 148.916C255.201 147.893 255.296 146.804 255.584 145.779C255.69 145.399 255.895 145.255 255.983 145.191C256.205 145.03 256.43 144.987 256.641 145.003C256.892 145.022 257.236 145.119 257.462 145.551C257.494 145.612 257.536 145.706 257.564 145.835C257.585 145.93 257.598 146.225 257.62 146.347C257.674 146.647 257.72 146.947 257.763 147.249C257.905 148.253 257.987 149.106 258.437 150.028C259.047 151.281 259.658 152.047 260.487 152.387C261.289 152.715 262.248 152.653 263.472 152.396C263.589 152.367 263.704 152.342 263.818 152.322C264.358 152.225 264.875 152.589 264.981 153.142C265.087 153.694 264.744 154.232 264.208 154.354C264.097 154.379 263.987 154.403 263.878 154.425C262.223 154.846 260.307 156.349 259.193 157.665C258.85 158.07 258.347 159.205 257.835 159.928C257.457 160.462 257.031 160.814 256.675 160.938C256.435 161.022 256.234 161.009 256.067 160.967C255.825 160.906 255.624 160.771 255.47 160.557C255.386 160.439 255.309 160.282 255.272 160.082C255.254 159.985 255.252 159.74 255.252 159.629C255.148 159.259 255.02 158.899 254.927 158.526C254.704 157.637 254.269 157.075 253.751 156.331C253.266 155.635 252.746 155.198 251.983 154.849C251.884 154.824 251.084 154.623 250.801 154.507C250.388 154.338 250.191 154.054 250.12 153.901C249.998 153.641 249.986 153.415 250.01 153.226C250.046 152.947 250.168 152.708 250.384 152.515C250.518 152.396 250.718 152.279 250.986 152.222C251.193 152.178 251.741 152.152 251.819 152.149ZM256.515 150.7C256.552 150.785 256.591 150.87 256.633 150.956C257.527 152.791 258.526 153.815 259.741 154.312L259.782 154.328C258.969 154.948 258.234 155.641 257.671 156.305C257.44 156.579 257.134 157.147 256.802 157.729C256.502 156.724 256.01 156.014 255.391 155.125C254.918 154.447 254.423 153.936 253.814 153.52C254.287 153.271 254.737 152.979 255.13 152.639C255.783 152.071 256.215 151.414 256.515 150.7Z" fill="#FF8F6B"/>
<path d="M77.784 154.891L77.7842 154.891C78.4596 154.282 78.5177 153.237 77.9097 152.557C77.305 151.875 76.2601 151.816 75.5829 152.426C71.0684 156.489 68.4953 161.529 67.7519 167.549C67.6381 168.455 68.2833 169.282 69.1828 169.396L69.1834 169.396C70.0893 169.51 70.9141 168.866 71.0226 167.96C71.6665 162.745 73.8796 158.403 77.784 154.891Z" fill="black" stroke="black"/>
<path d="M54.1415 166.423C57.8743 168.962 60.4672 175.139 62.394 181.944C65.005 191.161 66.2673 201.574 66.86 206.464C66.9487 207.195 67.0223 207.803 67.0833 208.264L54.1415 166.423ZM54.1415 166.423L53.8602 166.836C53.8603 166.836 53.8603 166.836 53.8603 166.836L54.1415 166.423ZM22.4365 175.435L22.4364 175.435C22.2202 176.506 21.729 177.418 20.9478 177.979L22.4365 175.435ZM22.4365 175.435C22.6424 174.413 22.596 173.202 22.4301 172.074M22.4365 175.435L22.4301 172.074M22.4301 172.074C22.281 171.061 22.0304 170.082 21.7527 169.321L22.4301 172.074ZM70.153 207.206L69.6563 207.15L70.1528 207.208C70.1529 207.208 70.153 207.207 70.153 207.206ZM17.8976 169.205C17.2432 170.327 16.6796 171.508 16.2279 172.736C16.0074 173.334 15.6331 174.629 15.7151 175.72C15.8009 176.911 16.3799 177.942 17.5953 178.335L17.5957 178.335C19.0176 178.795 20.1282 178.569 20.9476 177.98L17.8976 169.205ZM-5.33741 162.677C-5.33753 162.677 -5.33765 162.677 -5.33777 162.678C-5.33785 162.678 -5.33793 162.678 -5.33801 162.678L-5.05987 163.093L-5.33741 162.677ZM20.175 166.755C20.0688 166.621 19.9612 166.488 19.8524 166.357C19.746 166.491 19.641 166.625 19.5375 166.761C19.6463 166.893 19.7538 167.027 19.8599 167.163C19.9635 167.026 20.0685 166.89 20.175 166.755ZM68.7299 199.209C68.6667 198.772 68.6008 198.325 68.532 197.87C68.4248 198.308 68.3213 198.748 68.2218 199.189C68.2928 199.678 68.3603 200.156 68.4247 200.62C68.5217 200.148 68.6235 199.678 68.7299 199.209ZM91.0802 150.582C91.0799 150.582 91.0795 150.581 91.0792 150.581C91.0788 150.581 91.0785 150.581 91.0781 150.58L90.7614 150.967L91.0802 150.582ZM67.0031 210.005C67.0035 210.006 67.0038 210.007 67.0042 210.007C67.0053 210.009 67.0064 210.011 67.0074 210.012L67.4278 209.742L67.0031 210.005ZM24.1852 166.472C24.1852 166.472 24.1852 166.472 24.1852 166.472L23.834 166.116L24.1852 166.472ZM19.2061 174.774L19.206 174.775C19.1711 174.947 19.141 175.071 19.1027 175.165C19.0738 175.237 19.0494 175.268 19.035 175.281C19.0289 175.282 19.0196 175.282 19.0065 175.282C19.0044 175.282 19.0023 175.281 19.0002 175.281C19.0002 175.278 19.0003 175.275 19.0004 175.272C19.0265 174.801 19.1802 174.279 19.2936 173.956C19.285 174.248 19.257 174.524 19.2061 174.774Z" fill="black" stroke="black"/>
</g>
<defs>
<linearGradient id="paint0_linear_293_735" x1="154.594" y1="0.739115" x2="157.001" y2="413.381" gradientUnits="userSpaceOnUse">
<stop stop-color="#FFFFD5"/>
<stop offset="1" stop-color="#F5F5AA"/>
</linearGradient>
<clipPath id="clip0_293_735">
<rect width="300" height="300" fill="white"/>
</clipPath>
</defs>
</svg>
