<svg width="20" height="27" viewBox="0 0 20 27" fill="none" xmlns="http://www.w3.org/2000/svg">
<path id="Vector" d="M1.91667 26.0846C1.38958 26.0846 0.93821 25.7651 0.562543 25.126C0.186877 24.487 -0.000637262 23.7196 1.62705e-06 22.8241V3.26058C1.62705e-06 2.36392 0.187835 1.59606 0.563502 0.956983C0.939168 0.317909 1.39022 -0.00108409 1.91667 2.7679e-06H17.25C17.7771 2.7679e-06 18.2285 0.319539 18.6041 0.958613C18.9798 1.59769 19.1673 2.36501 19.1667 3.26058V22.8241C19.1667 23.7207 18.9788 24.4886 18.6032 25.1277C18.2275 25.7667 17.7764 26.0857 17.25 26.0846H1.91667ZM9.58333 14.6726L1.91667 6.52116V22.8241H17.25V6.52116L9.58333 14.6726ZM9.58333 11.412L17.25 3.26058H1.91667L9.58333 11.412ZM1.91667 6.52116V3.26058V22.8241V6.52116Z" fill="#16C99E"/>
</svg>
